<?xml version="1.0" encoding="UTF-8" standalone="no"?>
<svg
   xmlns:dc="http://purl.org/dc/elements/1.1/"
   xmlns:cc="http://creativecommons.org/ns#"
   xmlns:rdf="http://www.w3.org/1999/02/22-rdf-syntax-ns#"
   xmlns:svg="http://www.w3.org/2000/svg"
   xmlns="http://www.w3.org/2000/svg"
   xmlns:sodipodi="http://sodipodi.sourceforge.net/DTD/sodipodi-0.dtd"
   xmlns:inkscape="http://www.inkscape.org/namespaces/inkscape"
   id="Layer_1"
   data-name="Layer 1"
   viewBox="0 0 909.6732 161.288"
   version="1.1"
   sodipodi:docname="logo.svg"
   width="909.67322"
   height="161.28799"
   inkscape:version="0.92.2 2405546, 2018-03-11">
  <metadata
     id="metadata41">
    <rdf:RDF>
      <cc:Work
         rdf:about="">
        <dc:format>image/svg+xml</dc:format>
        <dc:type
           rdf:resource="http://purl.org/dc/dcmitype/StillImage" />
        <dc:title>3-bitcoin-cash-logo-ot</dc:title>
      </cc:Work>
    </rdf:RDF>
  </metadata>
  <sodipodi:namedview
     pagecolor="#ffffff"
     bordercolor="#666666"
     borderopacity="1"
     objecttolerance="10"
     gridtolerance="10"
     guidetolerance="10"
     inkscape:pageopacity="0"
     inkscape:pageshadow="2"
     inkscape:window-width="1920"
     inkscape:window-height="1022"
     id="namedview39"
     showgrid="false"
     fit-margin-top="0"
     fit-margin-left="0"
     fit-margin-right="0"
     fit-margin-bottom="0"
     inkscape:zoom="0.28897528"
     inkscape:cx="-388.71554"
     inkscape:cy="-114.75232"
     inkscape:window-x="0"
     inkscape:window-y="0"
     inkscape:window-maximized="1"
     inkscape:current-layer="Layer_1" />
  <defs
     id="defs4">
    <style
       id="style2">.cls-1{fill:#4d4d4d;}.cls-2{fill:#f7941d;}.cls-3{fill:#fff;}</style>
  </defs>
  <title
     id="title6">3-bitcoin-cash-logo-ot</title>
  <flowRoot
     xml:space="preserve"
     id="flowRoot4551"
     style="font-style:normal;font-variant:normal;font-weight:normal;font-stretch:normal;font-size:40px;line-height:1.25;font-family:'Nimbus Roman';-inkscape-font-specification:'Nimbus Roman, ';letter-spacing:0px;word-spacing:0px;fill:#000000;fill-opacity:1;stroke:none"
     transform="translate(4.73956,-176.48569)"><flowRegion
       id="flowRegion4553"
       style="font-style:normal;font-variant:normal;font-weight:normal;font-stretch:normal;font-family:'Nimbus Roman';-inkscape-font-specification:'Nimbus Roman, '"><rect
         id="rect4555"
         width="1128.1241"
         height="266.45877"
         x="-3.4605036"
         y="998.14624"
         style="font-style:normal;font-variant:normal;font-weight:normal;font-stretch:normal;font-family:'Nimbus Roman';-inkscape-font-specification:'Nimbus Roman, '" /></flowRegion><flowPara
       id="flowPara4557" /></flowRoot>  <path
     class="cls-2"
     d="m 187.07017,161.28799 c 25.37455,-17.8029 41.95621,-47.27537 41.95621,-80.63029 0,-33.354921 -16.58112,-62.854805 -41.95621,-80.6577 h 74.00685 v 161.28799 z"
     id="path30"
     inkscape:connector-curvature="0"
     style="fill:#f7941d;stroke-width:0.27138558" />
  <path
     class="cls-2"
     d="m 32.13206,80.630559 c 0,33.353291 16.58165,62.825771 41.95621,80.630291 H 0 V 0 H 74.0899 C 48.71371,17.802895 32.13206,47.275372 32.13206,80.630559 Z"
     id="path32"
     inkscape:connector-curvature="0"
     style="fill:#f7941d;stroke-width:0.27138558" />
  <circle
     class="cls-2"
     cx="130.53918"
     cy="80.591484"
     r="80.575745"
     id="circle34"
     style="fill:#f7941d;stroke-width:0.27138558" />
  <path
     class="cls-3"
     d="m 168.33126,83.939565 -0.0448,-0.08331 -0.008,-0.01386 c -0.0271,-0.08386 -0.0475,-0.171514 -0.0784,-0.262159 l -0.004,-0.0071 -0.004,-0.0071 -0.004,-0.0071 -0.004,-0.0071 -0.004,-0.0071 -0.004,-0.0071 -0.008,-0.01386 a 16.459265,16.459265 0 0 0 -5.38185,-8.05174 l -0.004,-0.0071 c -0.0757,-0.0578 -0.15523,-0.122394 -0.23122,-0.179926 l -0.10476,-0.07789 -0.0757,-0.05753 -0.0326,-0.02714 -0.0722,-0.05075 -0.0326,-0.02714 -0.0722,-0.05075 -0.0326,-0.02714 -0.0757,-0.05754 -0.0396,-0.02362 -0.0757,-0.05754 -0.0396,-0.02362 -0.0814,-0.05428 -0.0396,-0.02362 -0.048,-0.07273 -0.0431,-0.03038 -0.0814,-0.05428 -0.0432,-0.03038 -0.0814,-0.05428 -0.0431,-0.03038 -0.0814,-0.05428 -0.0431,-0.03038 -0.0866,-0.06079 -0.0431,-0.03038 -0.0934,-0.05726 -0.0431,-0.03038 -0.0934,-0.05726 -0.0431,-0.03038 -0.0934,-0.05726 -0.0431,-0.03038 -0.0934,-0.05726 -0.0502,-0.02714 -0.0934,-0.05727 -0.0502,-0.02714 -0.10042,-0.05428 -0.0502,-0.02714 -0.10422,-0.06025 -0.0502,-0.02714 -0.10421,-0.06025 -0.0502,-0.02714 -0.10421,-0.06025 -0.0543,-0.03366 -0.10421,-0.06024 -0.0543,-0.03366 -0.111,-0.05672 -0.0543,-0.03366 -0.111,-0.05672 -0.0752,-0.04017 -0.003,-0.0071 c -0.0543,-0.03366 -0.11099,-0.05672 -0.165,-0.09037 a 22.980118,22.980118 0 0 0 -7.35726,-2.324689 20.609022,20.609022 0 0 0 1.97107,-2.475581 l 0.0944,-0.140306 0.007,-0.0039 0.0437,-0.06839 0.0573,-0.09336 0.0304,-0.04315 0.0573,-0.09336 0.0304,-0.04315 0.0573,-0.09336 0.0304,-0.04315 0.0573,-0.09336 0.0304,-0.04315 0.0573,-0.09336 0.0304,-0.04315 0.0502,-0.08983 0.0304,-0.04315 0.0502,-0.08983 0.0236,-0.03962 0.0502,-0.08983 0.0236,-0.03962 0.0502,-0.08983 0.0233,-0.03963 0.0432,-0.08603 0.0236,-0.03962 0.0432,-0.08603 0.0236,-0.03962 0.0432,-0.08603 0.0236,-0.03962 0.0467,-0.07897 0.0236,-0.03962 0.0469,-0.07897 0.0236,-0.03962 0.0402,-0.07517 0.0236,-0.03963 0.0402,-0.07517 0.0166,-0.03582 0.0402,-0.07517 0.0166,-0.03582 0.0402,-0.07517 0.0166,-0.03582 0.0402,-0.07517 0.0166,-0.03582 0.0331,-0.07164 0.0166,-0.03582 0.0331,-0.07164 0.0166,-0.03582 0.0331,-0.07165 0.0166,-0.03582 0.0364,-0.08142 0.0497,-0.108555 c 0.0364,-0.08142 0.0657,-0.16066 0.10204,-0.244248 l 0.007,-0.0039 a 14.619814,14.619814 0 0 0 0.74278,-8.58284 l -0.004,-0.0071 -0.008,-0.01386 -0.004,-0.0071 -0.004,-0.0071 -0.004,-0.0071 -0.004,-0.0071 -0.004,-0.0071 -0.004,-0.0071 c -0.0166,-0.08142 -0.0331,-0.161204 -0.0565,-0.238276 v -0.01548 l -0.004,-0.0071 -0.004,-0.0071 -0.004,-0.0071 0.004,0.0071 -0.0337,-0.06242 c -0.0244,-0.11208 -0.0491,-0.224163 -0.0844,-0.339501 -0.0244,-0.112083 -0.0597,-0.227421 -0.0912,-0.335976 l -0.041,-0.07626 -0.008,-0.01386 c -0.0236,-0.0768 -0.047,-0.153874 -0.0706,-0.230675 l -0.004,-0.0071 -0.004,-0.0071 -0.004,-0.0071 -0.004,-0.0071 -0.004,-0.0071 -0.004,-0.0071 -0.003,-0.0071 a 14.621442,14.621442 0 0 0 -4.78751,-7.164579 l -0.003,-0.0071 c -0.0651,-0.05428 -0.13732,-0.105297 -0.20245,-0.159575 l -0.0898,-0.06785 -0.0722,-0.05075 -0.0326,-0.02714 -0.0613,-0.04749 -0.0326,-0.02714 -0.0616,-0.04749 -0.0323,-0.02714 -0.0687,-0.04369 -0.0326,-0.02714 -0.0719,-0.05075 -0.0326,-0.02714 -0.0722,-0.05075 -0.0326,-0.02714 -0.0722,-0.05075 -0.0396,-0.02362 -0.0722,-0.05075 -0.0396,-0.02362 -0.0722,-0.05075 -0.0396,-0.02362 -0.079,-0.04695 -0.0396,-0.02362 -0.079,-0.04695 -0.0396,-0.02362 -0.079,-0.04695 -0.0396,-0.02363 -0.079,-0.04695 -0.0396,-0.02362 -0.0828,-0.05428 -0.0396,-0.02362 -0.0828,-0.05428 -0.0396,-0.02362 -0.0898,-0.05021 -0.0396,-0.02362 -0.0896,-0.0502 -0.0431,-0.03038 -0.0898,-0.0502 -0.0432,-0.03038 -0.0896,-0.05021 -0.0431,-0.03038 -0.0934,-0.05726 -0.0502,-0.02714 -0.0958,-0.05944 -0.0502,-0.02714 -0.10042,-0.05428 -0.0502,-0.02714 -0.10042,-0.05427 -0.0716,-0.03312 -0.004,-0.0071 -0.15062,-0.08142 c -4.40025,-2.286967 -9.99052,-2.975473 -15.61499,-1.532514 l -1.46304,0.375597 -3.70061,-14.410576 -8.57578,2.198225 3.6884,14.353585 -6.86145,1.769705 -3.69084,-14.307722 -8.57579,2.198226 3.68841,14.353584 -17.68539,4.550866 2.35319,9.145693 7.12604,-1.830225 a 4.410016,4.410016 0 0 1 5.37126,3.169511 l 0.002,0.0087 v 0 l 9.89119,38.487086 a 2.9464335,2.9464335 0 0 1 -2.11681,3.58392 l -6.24404,1.60633 0.36692,10.87714 17.66448,-4.53947 3.7359,14.32753 8.57144,-2.20555 -3.69084,-14.36064 6.86008,-1.75885 3.6922,14.36037 8.57145,-2.20555 -3.70469,-14.41655 c 1.45246,-0.37994 2.70192,-0.70234 3.56628,-0.92596 6.33848,-1.63022 11.46414,-5.3463 14.56581,-9.980207 l 0.10475,-0.154688 0.007,-0.0039 0.0507,-0.07219 0.0673,-0.108555 0.0337,-0.05428 0.0673,-0.108556 0.0337,-0.05428 0.0602,-0.104209 0.0337,-0.05428 0.0602,-0.104212 0.0271,-0.05021 0.0602,-0.104212 0.0271,-0.05021 0.0602,-0.104212 0.0271,-0.05021 0.0543,-0.100411 0.0271,-0.05021 0.0543,-0.100414 0.0271,-0.05021 0.0573,-0.09336 0.0271,-0.0502 0.0573,-0.09336 0.0271,-0.0502 0.0502,-0.08983 0.0271,-0.0502 0.0502,-0.08956 0.0271,-0.05021 0.0502,-0.08956 0.0198,-0.04641 0.0502,-0.08956 0.0198,-0.04641 0.0432,-0.08603 0.0236,-0.03963 0.0431,-0.08603 0.0236,-0.03962 0.0431,-0.08603 0.0236,-0.03962 0.0432,-0.08603 0.0236,-0.03962 0.0431,-0.08603 0.0236,-0.03962 0.0431,-0.08603 0.0236,-0.03962 0.0364,-0.08142 0.0236,-0.03962 0.0361,-0.08142 0.0166,-0.03582 0.0396,-0.09281 0.0543,-0.118055 c 0.0396,-0.09281 0.0814,-0.178841 0.11535,-0.268127 l 0.003,-0.01058 a 16.473106,16.473106 0 0 0 0.8375,-9.654269 l -0.003,-0.0071 -0.004,-0.0071 -0.004,-0.0071 -0.004,-0.0071 -0.004,-0.0071 -0.004,-0.0071 -0.004,-0.0071 -0.004,-0.0071 c -0.0204,-0.08766 -0.0404,-0.175043 -0.0608,-0.262699 v -0.01764 l -0.004,-0.0071 -0.004,-0.0071 -0.004,-0.0071 -0.004,-0.0071 -0.004,-0.0071 -0.004,-0.0071 -0.004,-0.0071 -0.004,-0.0071 -0.004,-0.0071 -0.004,-0.0071 -0.004,-0.0071 -0.004,-0.0071 -0.004,-0.0071 -0.0149,-0.02714 c -0.032,-0.125922 -0.057,-0.255647 -0.0961,-0.378041 a 3.1106217,3.1106217 0 0 1 -0.0391,-0.353073 z M 117.94554,58.192941 c 1.46304,-0.375598 7.51222,-1.894813 9.50691,-2.41343 3.17114,-0.811714 6.29615,-0.496636 8.7359,0.678462 l 0.0814,0.03636 v 0 l 0.0358,0.01656 0.0502,0.02714 0.025,0.01328 0.0502,0.02714 0.025,0.01328 0.0502,0.02714 0.025,0.01328 0.0502,0.02714 0.025,0.01332 0.0502,0.02714 0.025,0.01328 0.0502,0.02714 0.025,0.01328 0.0502,0.02714 0.025,0.01328 0.0502,0.02714 0.025,0.01328 0.0502,0.02714 0.025,0.01328 0.0431,0.03038 0.025,0.01328 0.0431,0.03038 0.025,0.01328 0.0431,0.03038 0.025,0.01328 0.0396,0.02362 0.025,0.01328 0.0396,0.02362 0.025,0.01328 0.0396,0.02362 0.025,0.01328 0.0396,0.02362 0.025,0.01332 0.0396,0.02362 0.0182,0.0171 0.0396,0.02362 0.0144,0.01004 0.0396,0.02362 0.0144,0.01004 0.0396,0.02362 0.0144,0.01004 0.0396,0.02362 0.0144,0.01004 0.0326,0.02714 0.0144,0.01004 0.0396,0.02362 0.0543,0.03366 c 0.0396,0.02363 0.0757,0.05781 0.11534,0.08142 v 0 a 7.3944436,7.3944436 0 0 1 2.62105,3.754889 v 0 l 0.0111,0.02088 c 0.0117,0.03852 0.0271,0.08386 0.0388,0.122394 l 0.004,0.0071 0.0225,0.04152 c 0.016,0.06296 0.0353,0.115342 0.0513,0.178301 a 1.048634,1.048634 0 0 1 0.0342,0.196486 l 0.0225,0.04152 0.004,0.0071 a 0.59134924,0.59134924 0 0 0 0.032,0.125922 l 0.0111,0.02088 v 0 a 7.4194111,7.4194111 0 0 1 -0.48849,4.550591 v 0 l -0.0562,0.12864 -0.0298,0.06079 -0.0236,0.03962 -0.007,0.02142 -0.0166,0.03582 -0.007,0.02142 -0.0236,0.03962 -0.007,0.02142 -0.0236,0.03962 -0.007,0.02142 -0.0236,0.03962 -0.007,0.02142 -0.0236,0.03962 -0.007,0.02142 -0.0236,0.03962 -0.007,0.02142 -0.0236,0.03962 -0.0133,0.02498 -0.0236,0.03963 -0.0133,0.02497 -0.0234,0.03962 -0.0136,0.02498 -0.0234,0.03962 -0.0133,0.02498 -0.0304,0.04315 -0.0136,0.02498 -0.0304,0.04315 -0.0133,0.02498 -0.0304,0.04315 -0.0133,0.02498 -0.0304,0.04315 -0.0133,0.02498 -0.0304,0.04315 -0.0133,0.02497 -0.0304,0.04315 -0.0133,0.02498 -0.0304,0.04315 -0.0133,0.02497 -0.0304,0.04315 -0.0133,0.02497 -0.0374,0.04695 -0.0133,0.02497 -0.0374,0.04695 -0.0133,0.02498 -0.0375,0.04695 -0.0133,0.02498 -0.0374,0.04695 -0.0271,0.03258 v 0 l -0.0507,0.07219 c -1.57702,2.20962 -4.16142,3.994797 -7.33256,4.806512 -1.99849,0.511834 -8.03302,2.094009 -9.4947,2.46961 z m 33.51938,29.505859 0.0225,0.04152 0.004,0.0071 c 0.008,0.04912 0.0204,0.08766 0.0288,0.135692 v 0 l 0.004,0.0071 v 0 l 0.004,0.0071 0.004,0.0071 0.004,0.0071 v 0 a 7.6232217,7.6232217 0 0 1 -0.68959,4.972869 v 0 l -0.0768,0.139765 -0.0369,0.06459 -0.0271,0.05021 -0.0133,0.02497 -0.0236,0.03963 -0.0133,0.02497 -0.0236,0.03962 -0.0133,0.02497 -0.0304,0.04315 -0.0133,0.02497 -0.0304,0.04315 -0.0133,0.02497 -0.0304,0.04315 -0.0133,0.02498 -0.0304,0.04315 -0.0133,0.02497 -0.0304,0.04315 -0.0133,0.02498 -0.0304,0.04315 -0.0133,0.02497 -0.0304,0.04315 -0.0133,0.02497 -0.0304,0.04315 -0.0133,0.02497 -0.0304,0.04315 -0.0133,0.02497 -0.0374,0.04695 -0.0133,0.02497 -0.0374,0.04695 -0.0133,0.02498 -0.0337,0.05428 -0.0133,0.02497 -0.0337,0.05427 -0.0133,0.02497 -0.0337,0.05428 -0.0203,0.02876 -0.0337,0.05428 -0.0203,0.02876 -0.0407,0.05753 -0.0203,0.02876 -0.0407,0.05754 -0.0203,0.02876 -0.0407,0.05754 -0.0203,0.02876 -0.041,0.05753 -0.0204,0.02876 -0.0407,0.05753 -0.0342,0.03636 v 0 l -0.0646,0.07952 c -1.91517,2.445727 -5.00435,4.457507 -8.75626,5.420654 -2.3662,0.61089 -9.51559,2.48073 -11.25517,2.92472 l -4.8673,-18.938639 c 1.73687,-0.451044 8.90525,-2.250874 11.27119,-2.861764 3.75217,-0.963144 7.43596,-0.689861 10.28307,0.525947 l 0.0928,0.03962 v 0 l 0.0464,0.0198 0.0679,0.02714 0.032,0.0095 0.0608,0.02984 0.032,0.0095 0.0608,0.02984 0.032,0.0095 0.0608,0.02984 0.0247,0.01328 0.0608,0.02984 0.025,0.01328 0.0608,0.02984 0.025,0.01328 0.0608,0.02984 0.025,0.01328 0.0502,0.02714 0.025,0.01328 0.0502,0.02714 0.025,0.01332 0.0502,0.02714 0.025,0.01332 0.0502,0.02714 0.025,0.01328 0.0502,0.02714 0.025,0.01328 0.0502,0.02714 0.025,0.01328 0.0502,0.02714 0.025,0.01328 0.0502,0.02714 0.025,0.01328 0.0502,0.02714 0.025,0.01328 0.0431,0.03038 0.025,0.01328 0.0432,0.03038 0.025,0.01328 0.0432,0.03038 0.025,0.01328 0.0432,0.03042 0.025,0.01328 0.0432,0.03042 0.025,0.01328 0.0396,0.02362 0.025,0.01328 0.0432,0.03038 0.0575,0.04071 c 0.0431,0.03038 0.0934,0.05726 0.13569,0.08766 v 0 a 7.6462892,7.6462892 0 0 1 2.99935,4.025463 v 0 l 0.0149,0.02714 c 0.0155,0.04532 0.0271,0.08386 0.0426,0.12918 l 0.004,0.0071 0.0225,0.04152 c 0.016,0.06296 0.032,0.125922 0.0518,0.195938 0.035,0.01548 0.0407,0.09281 0.0296,0.188341 z"
     id="path36"
     inkscape:connector-curvature="0"
     style="fill:#ffffff;stroke-width:0.27138558" />
  <path
     class="cls-2"
     d="m 352.75281,157.04386 q -33,0 -50.2,-18.3 -17.25,-18.3 -17.2,-52 a 80.1,80.1 0 0 1 5.3,-29.9 63.651,63.651 0 0 1 14.4,-22.2 60.736,60.736 0 0 1 21.8,-13.7 79,79 0 0 1 27.5,-4.7 83.336,83.336 0 0 1 15.6,1.3 93.458,93.458 0 0 1 12.3,2.9 60.353,60.353 0 0 1 8.8,3.4 q 3.45,1.8 5.1,2.7 l -8.8,24.5 a 71.915,71.915 0 0 0 -14.5,-5.6 67.7,67.7 0 0 0 -18.8,-2.3 42.383,42.383 0 0 0 -13.7,2.3 32.458,32.458 0 0 0 -11.9,7.5 38.221,38.221 0 0 0 -8.3,13.3 c -2.1,5.5 -3.1,12.1 -3.1,19.9 a 74.139,74.139 0 0 0 2,17.4 38.134,38.134 0 0 0 6.6,13.9 32.066,32.066 0 0 0 12,9.3 c 4.9,2.3 10.9,3.4 17.9,3.4 a 84.594,84.594 0 0 0 11.9,-0.8 70.782,70.782 0 0 0 9.4,-1.9 50.542,50.542 0 0 0 7.2,-2.4 c 2.1,-0.9 4,-1.8 5.6,-2.5 l 8.4,24.4 c -4.3,2.6 -10.3,4.9 -18.1,7 a 106.518,106.518 0 0 1 -27.2,3.1 z"
     id="path22"
     inkscape:connector-curvature="0"
     style="fill:#f7941d" />
  <path
     class="cls-2"
     d="m 443.55281,49.14386 c 8.6,0 15.7,1 21.4,2.9 a 31.9,31.9 0 0 1 13.7,8.4 31.088,31.088 0 0 1 7.3,13.2 66.662,66.662 0 0 1 2.1,17.3 v 60.4 c -4.2,0.9 -9.9,2 -17.3,3.2 a 170.308,170.308 0 0 1 -26.9,1.9 83.1,83.1 0 0 1 -18,-1.8 40.618,40.618 0 0 1 -13.9,-5.7 26.633,26.633 0 0 1 -9,-10.4 c -2.1,-4.3 -3.1,-9.5 -3.1,-15.8 a 29.993,29.993 0 0 1 3.6,-15.2 26.837,26.837 0 0 1 9.6,-9.9 42.35,42.35 0 0 1 13.8,-5.4 78.051,78.051 0 0 1 16.2,-1.7 96.807,96.807 0 0 1 10,0.5 34.884,34.884 0 0 1 7.1,1.3 v -2.7 c 0,-4.9 -1.5,-8.9 -4.5,-11.9 -3,-3 -8.2,-4.5 -15.6,-4.5 a 101.347,101.347 0 0 0 -14.6,1.1 62.015,62.015 0 0 0 -12.5,3 l -3.7,-23.4 c 1.7,-0.5 3.8,-1.1 6.3,-1.7 2.5,-0.6 5.3,-1.1 8.3,-1.6 3,-0.5 6.1,-0.8 9.4,-1.2 3.5,-0.1 6.9,-0.3 10.3,-0.3 z m 2.3,84.9 c 2.9,0 5.6,-0.1 8.2,-0.2 a 41.718,41.718 0 0 0 6.2,-0.6 v -22 a 51.806,51.806 0 0 0 -5.3,-0.8 49.98,49.98 0 0 0 -6.4,-0.4 62.141,62.141 0 0 0 -7.7,0.5 17.239,17.239 0 0 0 -6.3,1.9 11.053,11.053 0 0 0 -4.3,3.7 10.685,10.685 0 0 0 -1.6,5.8 c 0,4.5 1.5,7.7 4.6,9.4 3.1,1.9 7.3,2.7 12.6,2.7 z"
     id="path24"
     inkscape:connector-curvature="0"
     style="fill:#f7941d" />
  <path
     class="cls-2"
     d="m 533.15281,133.54386 c 5.3,0 9.1,-0.5 11.3,-1.6 2.2,-1 3.3,-3.1 3.3,-6 0,-2.3 -1.4,-4.4 -4.3,-6.1 a 77.693,77.693 0 0 0 -13.1,-5.9 121.546,121.546 0 0 1 -12.4,-5.3 34.807,34.807 0 0 1 -9.4,-6.5 25.8,25.8 0 0 1 -6,-9.1 34.093,34.093 0 0 1 -2.1,-12.7 c 0,-9.6 3.6,-17.2 10.7,-22.8 7.1,-5.6 16.9,-8.4 29.4,-8.4 a 94.571,94.571 0 0 1 17.9,1.7 80.671,80.671 0 0 1 13.6,3.6 l -5.1,22.6 a 96.393,96.393 0 0 0 -11,-3.1 60.315,60.315 0 0 0 -13.3,-1.4 c -9.1,0 -13.6,2.5 -13.6,7.6 a 7.452,7.452 0 0 0 0.6,3.1 6.861,6.861 0 0 0 2.3,2.6 32.831,32.831 0 0 0 4.8,2.7 69.823,69.823 0 0 0 7.7,3.2 123.614,123.614 0 0 1 15.8,7 38,38 0 0 1 9.8,7.4 23.86,23.86 0 0 1 5.1,8.8 38.174,38.174 0 0 1 1.5,11.3 c 0,10.1 -3.8,17.8 -11.4,22.9 -7.6,5.2 -18.3,7.8 -32.2,7.8 a 95.622,95.622 0 0 1 -22.7,-2.3 113.2,113.2 0 0 1 -12.6,-3.9 l 4.9,-23.6 a 98.764,98.764 0 0 0 15.2,4.6 66.584,66.584 0 0 0 15.3,1.8 z"
     id="path26"
     inkscape:connector-curvature="0"
     style="fill:#f7941d" />
  <path
     class="cls-2"
     d="m 587.45281,154.34386 v -146.5 l 29,-4.7 v 49.1 a 66.941,66.941 0 0 1 7.5,-1.9 46.342,46.342 0 0 1 8.9,-0.9 c 8.3,0 15.2,1.1 20.7,3.4 a 32.778,32.778 0 0 1 13.2,9.6 38.293,38.293 0 0 1 7,14.8 80.565,80.565 0 0 1 2,19.1 v 57.9 h -29 v -54.4 c 0,-9.4 -1.2,-16 -3.6,-19.9 -2.4,-3.9 -6.9,-5.8 -13.3,-5.8 a 34.091,34.091 0 0 0 -7.3,0.7 60.568,60.568 0 0 0 -6.1,1.5 v 77.9 h -29 z"
     id="path28"
     inkscape:connector-curvature="0"
     style="fill:#f7941d" />
  <g
     aria-label="lib"
     transform="matrix(0.88685965,0,0,1,481.95399,-1007.5461)"
     style="font-style:normal;font-variant:normal;font-weight:bold;font-stretch:normal;font-size:192px;line-height:1.25;font-family:padmaa;-inkscape-font-specification:'padmaa Bold';letter-spacing:0px;word-spacing:0px;fill:#4d4d4d;fill-opacity:1;stroke:none"
     id="flowRoot4559">
    <path
       d="m 237.59766,1015.2246 h 33.5625 v 145.875 h -33.5625 z"
       style="font-style:normal;font-variant:normal;font-weight:bold;font-stretch:normal;font-family:padmaa;-inkscape-font-specification:'padmaa Bold'"
       id="path4700"
       inkscape:connector-curvature="0" />
    <path
       d="m 303.59766,1056.0996 h 33.5625 v 105 h -33.5625 z m 0,-40.875 h 33.5625 v 27.375 h -33.5625 z"
       style="font-style:normal;font-variant:normal;font-weight:bold;font-stretch:normal;font-family:padmaa;-inkscape-font-specification:'padmaa Bold'"
       id="path4702"
       inkscape:connector-curvature="0" />
    <path
       d="m 425.47266,1139.4434 q 10.78125,0 16.40625,-7.875 5.71875,-7.875 5.71875,-22.875 0,-15 -5.71875,-22.875 -5.625,-7.875 -16.40625,-7.875 -10.78125,0 -16.59375,7.9687 -5.71875,7.875 -5.71875,22.7813 0,14.9062 5.71875,22.875 5.8125,7.875 16.59375,7.875 z m -22.3125,-67.9688 q 6.9375,-9.1875 15.375,-13.5 8.4375,-4.4062 19.40625,-4.4062 19.40625,0 31.875,15.4687 12.46875,15.375 12.46875,39.6563 0,24.2812 -12.46875,39.75 -12.46875,15.375 -31.875,15.375 -10.96875,0 -19.40625,-4.3125 -8.4375,-4.4063 -15.375,-13.5938 v 15.1875 h -33.5625 v -145.875 h 33.5625 z"
       style="font-style:normal;font-variant:normal;font-weight:bold;font-stretch:normal;font-family:padmaa;-inkscape-font-specification:'padmaa Bold'"
       id="path4704"
       inkscape:connector-curvature="0" />
  </g>
  <flowRoot
     xml:space="preserve"
     id="flowRoot968"
     style="font-style:normal;font-weight:normal;font-size:40px;line-height:1.25;font-family:sans-serif;letter-spacing:0px;word-spacing:0px;fill:#000000;fill-opacity:1;stroke:none"><flowRegion
       id="flowRegion970"><rect
         id="rect972"
         width="1657.5812"
         height="588.28558"
         x="-134.95964"
         y="-181.30186" /></flowRegion><flowPara
       id="flowPara974"></flowPara></flowRoot></svg>
